<svg width="24" height="24" viewBox="0 0 24 24" fill="none" xmlns="http://www.w3.org/2000/svg">
<path d="M8.28536 10.578L8.79736 1.92101C8.80143 1.85327 8.82791 1.78881 8.87262 1.73776C8.91733 1.68671 8.97775 1.65197 9.04436 1.63901L17.3764 0.0060098C17.4278 -0.00409551 17.481 -0.000806838 17.5308 0.0155603C17.5807 0.0319274 17.6254 0.0608237 17.6609 0.0994764C17.6963 0.138129 17.7212 0.185241 17.7332 0.236292C17.7452 0.287343 17.7439 0.34062 17.7294 0.39101L16.1714 5.79401C16.1569 5.84431 16.1556 5.89747 16.1675 5.94842C16.1795 5.99936 16.2043 6.0464 16.2396 6.08502C16.2749 6.12364 16.3196 6.15256 16.3692 6.16902C16.4189 6.18547 16.472 6.18891 16.5234 6.17901L18.9114 5.71901C18.9675 5.70802 19.0257 5.71302 19.0792 5.73343C19.1327 5.75384 19.1794 5.78885 19.2139 5.83448C19.2485 5.8801 19.2696 5.93452 19.2748 5.99153C19.28 6.04855 19.2691 6.10588 19.2434 6.15701L12.4534 19.707L12.3304 19.897C12.3039 19.94 12.2668 19.9755 12.2227 20C12.1786 20.0245 12.1288 20.0373 12.0784 20.037C11.9014 20.037 11.7284 19.885 11.7734 19.668L12.8684 14.367C12.8791 14.3151 12.8762 14.2613 12.8599 14.2108C12.8435 14.1604 12.8144 14.115 12.7753 14.0792C12.7362 14.0434 12.6884 14.0184 12.6367 14.0066C12.585 13.9948 12.5311 13.9967 12.4804 14.012L11.0474 14.447C10.9966 14.4625 10.9427 14.4645 10.891 14.4528C10.8393 14.4412 10.7914 14.4163 10.7522 14.3806C10.713 14.3449 10.6837 14.2996 10.6673 14.2492C10.6508 14.1988 10.6477 14.145 10.6584 14.093L11.3484 10.718C11.3588 10.6676 11.3564 10.6154 11.3413 10.5662C11.3263 10.517 11.299 10.4724 11.2621 10.4365C11.2253 10.4006 11.1799 10.3746 11.1303 10.3609C11.0807 10.3472 11.0284 10.3462 10.9784 10.358L8.65836 10.894C8.61206 10.9046 8.56391 10.9044 8.51774 10.8932C8.47157 10.882 8.42864 10.8602 8.39235 10.8295C8.35606 10.7989 8.32741 10.7602 8.30867 10.7165C8.28992 10.6729 8.2816 10.6254 8.28436 10.578H8.28536ZM23.2614 2.65201L17.2834 3.74001L16.7394 5.62701L18.8164 5.22701C18.9773 5.19492 19.1442 5.21312 19.2945 5.27913C19.4448 5.34514 19.5711 5.45577 19.6564 5.59601C19.7287 5.71264 19.7699 5.84593 19.7758 5.98306C19.7818 6.12019 19.7523 6.25654 19.6904 6.37901L12.8994 19.93L12.8864 19.955L12.8714 19.978L12.7494 20.168C12.6772 20.281 12.5779 20.374 12.4605 20.4387C12.3431 20.5033 12.2114 20.5375 12.0774 20.538C11.956 20.5373 11.8362 20.5099 11.7267 20.4577C11.6171 20.4055 11.5204 20.3298 11.4434 20.236C11.3685 20.1433 11.3152 20.035 11.2876 19.9191C11.2599 19.8032 11.2584 19.6826 11.2834 19.566L12.3124 14.585L11.1924 14.925C11.0392 14.9712 10.8757 14.9709 10.7227 14.9243C10.5696 14.8776 10.4338 14.7867 10.3324 14.663C10.2567 14.5707 10.2027 14.4626 10.1741 14.3467C10.1456 14.2308 10.1433 14.1099 10.1674 13.993L10.7974 10.913L8.77036 11.381C8.63314 11.4124 8.49009 11.4075 8.35538 11.3666C8.22068 11.3257 8.09898 11.2504 8.00236 11.148C7.92745 11.0679 7.8696 10.9734 7.83229 10.8703C7.79499 10.7671 7.77903 10.6575 7.78536 10.548L8.17436 3.97801L0.73436 2.64801C0.619728 2.62732 0.501574 2.63978 0.393776 2.68392C0.285979 2.72805 0.193017 2.80204 0.12581 2.89718C0.0586032 2.99232 0.0199435 3.10466 0.0143724 3.22101C0.00880131 3.33736 0.0365503 3.45288 0.0943595 3.55401L11.5794 23.691C11.633 23.7853 11.7107 23.8636 11.8046 23.9179C11.8985 23.9722 12.0051 24.0007 12.1135 24.0003C12.222 23.9999 12.3284 23.9706 12.4218 23.9156C12.5153 23.8605 12.5924 23.7817 12.6454 23.687L23.9054 3.55201C23.9618 3.4507 23.9883 3.33544 23.9818 3.21966C23.9752 3.10388 23.9359 2.99233 23.8684 2.89802C23.801 2.80371 23.7081 2.73052 23.6006 2.68696C23.4931 2.64341 23.3755 2.63128 23.2614 2.65201Z" fill="black"/>
</svg>
