<svg xmlns="http://www.w3.org/2000/svg" xmlns:xlink="http://www.w3.org/1999/xlink" width="112" height="112" viewBox="0 0 112 112">
  <defs>
    <radialGradient id="radial-gradient" cx="0.5" cy="0.5" r="0.5" gradientUnits="objectBoundingBox">
      <stop offset="0"/>
      <stop offset="1" stop-color="#fff" stop-opacity="0"/>
    </radialGradient>
    <filter id="사각형_3621" x="18" y="21" width="76" height="76" filterUnits="userSpaceOnUse">
      <feOffset dy="3" input="SourceAlpha"/>
      <feGaussianBlur stdDeviation="3" result="blur"/>
      <feFlood flood-opacity="0.012"/>
      <feComposite operator="in" in2="blur"/>
      <feComposite in="SourceGraphic"/>
    </filter>
    <linearGradient id="linear-gradient" x1="0.541" y1="0.477" x2="0.404" y2="-0.396" gradientUnits="objectBoundingBox">
      <stop offset="0" stop-color="#006fdf"/>
      <stop offset="1" stop-color="#3fa9f5"/>
    </linearGradient>
    <linearGradient id="linear-gradient-2" y1="0.5" x2="1" y2="0.5" gradientUnits="objectBoundingBox">
      <stop offset="0" stop-color="#114194"/>
      <stop offset="1" stop-color="#111259"/>
    </linearGradient>
  </defs>
  <g id="_1" data-name="1" transform="translate(-1367 -189)">
    <rect id="사각형_3622" data-name="사각형 3622" width="112" height="112" rx="56" transform="translate(1367 189)" opacity="0.2" fill="url(#radial-gradient)"/>
    <g transform="matrix(1, 0, 0, 1, 1367, 189)" filter="url(#사각형_3621)">
      <rect id="사각형_3621-2" data-name="사각형 3621" width="58" height="58" rx="10" transform="translate(27 27)" fill="#fff"/>
    </g>
    <g id="그룹_6136" data-name="그룹 6136" transform="translate(678.958 -60.606)">
      <g id="그룹_6133" data-name="그룹 6133" transform="translate(722.5 315.318)">
        <g id="그룹_6132" data-name="그룹 6132" transform="translate(0 0)">
          <g id="그룹_6131" data-name="그룹 6131">
            <path id="패스_12150" data-name="패스 12150" d="M723.656,421.749h1.988l-1.156,6.555H722.5Z" transform="translate(-722.5 -419.512)" fill="#006fdf"/>
            <path id="패스_12151" data-name="패스 12151" d="M740.318,423.922c.144-.818-.183-1.032-.585-1.032-.642,0-.966.554-1.114,1.4l-.648,3.674h-1.988l.914-5.184a12.947,12.947,0,0,0,.191-1.371H738.9c-.026.289-.065.654-.143,1.095h.025a2.2,2.2,0,0,1,2.06-1.2c1.447,0,1.739,1.057,1.508,2.366l-.757,4.291h-1.988Z" transform="translate(-732.926 -419.168)" fill="#006fdf"/>
            <path id="패스_12152" data-name="패스 12152" d="M769.161,423.054a3.669,3.669,0,0,0-1.536-.352c-.516,0-.787.251-.827.478-.071.4.194.541,1.2.944a1.5,1.5,0,0,1,1.034,1.913,2.515,2.515,0,0,1-2.773,2.026,6.309,6.309,0,0,1-2.1-.315l.321-1.535a2.852,2.852,0,0,0,1.556.453c.931,0,1.052-.327,1.1-.617s-.443-.415-1.236-.768a1.666,1.666,0,0,1-1.016-2.013,2.6,2.6,0,0,1,2.8-1.963,5.548,5.548,0,0,1,1.778.264Z" transform="translate(-754.72 -419.168)" fill="#006fdf"/>
            <path id="패스_12153" data-name="패스 12153" d="M791.451,421.749l.133,4.668h.025l1.754-4.668h2.265l.07,4.668h.025l1.742-4.668h1.887l-2.9,6.555h-2.114l-.224-4.794h-.025l-1.852,4.794h-2.164l-.605-6.555Z" transform="translate(-774.279 -419.512)" fill="#114194"/>
            <path id="패스_12154" data-name="패스 12154" d="M831.3,421.72a8.584,8.584,0,0,1,2.187-.415c2.3,0,2.662.956,2.4,2.416l-.422,2.391c-.171.969-.236,1.409-.276,1.849h-1.812l.109-.906h-.025a2.366,2.366,0,0,1-1.976,1.006,1.558,1.558,0,0,1-1.675-1.988c.386-2.189,2.942-2.2,3.634-2.2h.6c.222-1.258-.709-1.258-1-1.258a3.879,3.879,0,0,0-1.926.579Zm2.589,3.083c-.793,0-2.047.05-2.24,1.145-.151.856.541.856.7.856s1.187-.025,1.469-1.623Z" transform="translate(-805.448 -419.168)" fill="#114194"/>
            <path id="패스_12155" data-name="패스 12155" d="M860.039,421.749H862.1l.385,4.668h.025l2.018-4.668h1.937l-3.207,6.555h-2.34Z" transform="translate(-828.851 -419.512)" fill="#114194"/>
            <path id="패스_12156" data-name="패스 12156" d="M892.122,425.205H888.26c-.138.78.239,1.5,1.359,1.5a4.656,4.656,0,0,0,1.94-.516l-.226,1.5a6.76,6.76,0,0,1-2.142.378c-2.3,0-3.075-1.4-2.722-3.4a3.772,3.772,0,0,1,3.5-3.36c.591,0,2.843,0,2.24,3.422Zm-1.621-1.082c.146-.83.07-1.61-.748-1.61-1.019,0-1.241,1.258-1.3,1.61Z" transform="translate(-849.224 -419.168)" fill="#114194"/>
            <path id="패스_12157" data-name="패스 12157" d="M728.188,411.882l-.337,1.912,2.128-.794.2-1.118Z" transform="translate(-726.637 -411.882)" fill="#006fdf"/>
          </g>
        </g>
      </g>
      <g id="그룹_6135" data-name="그룹 6135" transform="translate(727.883 287)">
        <g id="그룹_6134" data-name="그룹 6134" transform="translate(0)">
          <path id="패스_12158" data-name="패스 12158" d="M753.689,293.493,753.1,287h-6.863l1.367,14.88A19.691,19.691,0,0,1,753.689,293.493Z" transform="translate(-746.239 -287)" fill="url(#linear-gradient)"/>
        </g>
        <path id="패스_12159" data-name="패스 12159" d="M785.425,287.086h-6.55a22.048,22.048,0,0,1-.188,7.455c-.85,4.991-2.695,8.838-4.121,8.592-.356-.061-.653-.373-.884-.883-.122-.563-.266-1.106-.432-1.627-1.143-3.59-3.293-6.1-6.084-6.584-.185-.032-.37-.053-.555-.067-4.961-.358-10,5.825-11.422,14.2q-.141.827-.228,1.641h6.852q.036-.23.075-.463c.85-4.991,2.7-8.838,4.121-8.592.407.07.735.467.977,1.112q.128.552.286,1.076c1.119,3.738,3.306,6.369,6.169,6.862l.038.006c5.123.846,10.463-5.473,11.939-14.142A24.592,24.592,0,0,0,785.425,287.086Z" transform="translate(-752.982 -287.066)" fill="url(#linear-gradient-2)"/>
      </g>
    </g>
  </g>
</svg>
